<?xml version="1.0" encoding="utf-8"?>
<!-- Generator: Adobe Illustrator 24.2.1, SVG Export Plug-In . SVG Version: 6.00 Build 0)  -->
<svg version="1.1" id="Capa_1" xmlns="http://www.w3.org/2000/svg" xmlns:xlink="http://www.w3.org/1999/xlink" x="0px" y="0px"
	 viewBox="0 0 1200 375" style="enable-background:new 0 0 1200 375;" xml:space="preserve">
<style type="text/css">
	.st0{fill:#212528;}
	.st1{fill:#1D1E1C;stroke:#1D1E1C;stroke-miterlimit:10;}
	.st2{fill:#159F84;stroke:#1D1D1B;stroke-miterlimit:10;}
	.st3{fill:#1D1D1B;}
	.st4{font-family:'Snippet';}
	.st5{font-size:100px;}
	.st6{fill:#F6F6F6;}
	.st7{fill:none;stroke:#159F84;stroke-width:3;stroke-miterlimit:10;}
	.st8{fill:#159F84;}
	.st9{fill:#159F84;stroke:#159F84;stroke-width:3;stroke-miterlimit:10;}
	.st10{fill:none;stroke:#159F84;stroke-width:2;stroke-miterlimit:10;}
	.st11{fill:#FFFFFF;}
	.st12{font-size:30px;}
</style>
<rect class="st0" width="1200" height="375"/>
<g>
	<path class="st1" d="M291.45,91.16c1.46-1.31,3.39-2.11,5.51-2.11c2.74,0,5.16,1.34,6.67,3.39l8.91-2.9
		c-0.11-0.56-0.17-1.14-0.17-1.73c0-2.38,0.94-4.54,2.46-6.14l-6.66-11.53c-0.92,0.32-1.91,0.5-2.94,0.5
		c-2.27,0-4.33-0.84-5.92-2.21l-16.98,7.92c0.26,0.81,0.41,1.67,0.41,2.57c0,1.74-0.54,3.36-1.46,4.69L291.45,91.16z"/>
	<path class="st1" d="M310.76,68.74l6.44,11.15c1.22-0.63,2.6-0.99,4.06-0.99c1.35,0,2.63,0.31,3.77,0.85
		c-1.17-2.21-2.59-4.46-4.31-6.68c-2.32-2.99-4.83-5.47-7.36-7.52C312.75,66.81,311.85,67.9,310.76,68.74z"/>
	<path class="st1" d="M321.26,96.7c-3.28,0-6.13-1.78-7.68-4.42l-8.66,2.82c0.2,0.71,0.31,1.45,0.31,2.22
		c0,2.38-1.01,4.53-2.63,6.04l14.35,19.62c1.29-0.67,2.75-1.06,4.3-1.06c4.8,0,8.76,3.64,9.25,8.32v-28.79
		c-0.01-1.83-0.15-5.45-1.16-9.95C327.94,94.56,324.85,96.7,321.26,96.7z"/>
	<path class="st1" d="M273.36,60.48l0.89,10.16c0.08,0,0.15-0.01,0.23-0.01c2.62,0,4.95,1.22,6.46,3.11l16.45-7.67
		c-0.76-1.33-1.2-2.86-1.2-4.5c0-1.66,0.45-3.21,1.24-4.55c-1.7-0.53-3.06-0.85-3.9-1.03l-15.22,0
		C277.34,58.09,275.55,59.73,273.36,60.48z"/>
	<path class="st1" d="M228.49,95.47c3.02,2.79,6.23,4.43,8.96,5.41c-0.67-1.25-1.05-2.67-1.05-4.18c0-4.91,3.98-8.9,8.9-8.9
		c2.49,0,4.74,1.03,6.36,2.68l15.07-8.7c-0.33-0.9-0.52-1.86-0.52-2.88c0-3.46,2.13-6.42,5.15-7.66l-0.9-10.32
		c-3.33-0.07-6.17-2.08-7.47-4.94l-16.24,0c-0.71,0.01-1.43,0.01-2.16,0c-9.24-0.19-17.45-2.74-24.39-6.14l-0.17,27.54
		C220.15,79.41,220.92,88.48,228.49,95.47z"/>
	<path class="st1" d="M330.51,132.21c-0.49,4.67-4.45,8.32-9.25,8.32c-5.14,0-9.3-4.17-9.3-9.3c0-2.53,1.01-4.81,2.64-6.49
		l-14.46-19.77c-0.98,0.41-2.05,0.63-3.18,0.63c-4.57,0-8.27-3.7-8.27-8.27c0-1.39,0.35-2.7,0.95-3.85l-10.45-7.77
		c-1.34,0.93-2.96,1.48-4.71,1.48c-2.5,0-4.74-1.11-6.25-2.87l-14.88,8.59c0.54,1.15,0.86,2.43,0.86,3.79
		c0,2.11-0.74,4.05-1.97,5.57h27.68c1.07,0.12,5.41,0.71,8.79,4.48c3.84,4.27,3.55,9.38,3.48,10.29l-0.33,35.5
		c-0.22,1.31-1.14,5.75-5.14,9.29c-4.44,3.93-9.57,4-10.78,3.98l-22.73,0.17l-0.17-44.79c-8.49,6.91-14.29,7.84-18.08,7.3
		c-1.37-0.2-3.24-0.69-5.64,0c-4.07,1.17-6.35,4.81-7.96,7.38c-2.43,3.88-3.42,7.75-3.82,10.7v75.31c3.15-1.96,7.43-4.21,12.77-5.97
		c5.47-1.8,10.35-2.53,14.1-2.82h46.78c3.12-0.46,19.83-3.23,30.86-18.58c8.78-12.22,8.66-25.03,8.46-29.03V132.21z"/>
</g>
<g>
	<path class="st2" d="M290.18,88.47c1.46-1.31,3.39-2.11,5.51-2.11c2.74,0,5.16,1.34,6.67,3.39l8.91-2.9
		c-0.11-0.56-0.17-1.14-0.17-1.73c0-2.38,0.94-4.54,2.46-6.14l-6.66-11.53c-0.92,0.32-1.91,0.5-2.94,0.5
		c-2.27,0-4.33-0.84-5.92-2.21l-16.98,7.92c0.26,0.81,0.41,1.67,0.41,2.57c0,1.74-0.54,3.36-1.46,4.69L290.18,88.47z"/>
	<path class="st2" d="M309.48,66.05l6.44,11.15c1.22-0.63,2.6-0.99,4.06-0.99c1.35,0,2.63,0.31,3.77,0.85
		c-1.17-2.21-2.59-4.46-4.31-6.68c-2.32-2.99-4.83-5.47-7.36-7.52C311.47,64.12,310.58,65.21,309.48,66.05z"/>
	<path class="st2" d="M319.98,94.01c-3.28,0-6.13-1.78-7.68-4.42l-8.66,2.82c0.2,0.71,0.31,1.45,0.31,2.22
		c0,2.38-1.01,4.53-2.63,6.04l14.35,19.62c1.29-0.67,2.75-1.06,4.3-1.06c4.8,0,8.76,3.64,9.25,8.32V98.76
		c-0.01-1.83-0.15-5.45-1.16-9.95C326.67,91.87,323.58,94.01,319.98,94.01z"/>
	<path class="st2" d="M272.08,57.79l0.89,10.16c0.08,0,0.15-0.01,0.23-0.01c2.62,0,4.95,1.22,6.46,3.11l16.45-7.67
		c-0.76-1.33-1.2-2.86-1.2-4.5c0-1.66,0.45-3.21,1.24-4.55c-1.7-0.53-3.06-0.85-3.9-1.03l-15.22,0
		C276.07,55.4,274.28,57.04,272.08,57.79z"/>
	<path class="st2" d="M227.21,92.78c3.02,2.79,6.23,4.43,8.96,5.41c-0.67-1.25-1.05-2.67-1.05-4.18c0-4.91,3.98-8.9,8.9-8.9
		c2.49,0,4.74,1.03,6.36,2.68l15.07-8.7c-0.33-0.9-0.52-1.86-0.52-2.88c0-3.46,2.13-6.42,5.15-7.66l-0.9-10.32
		c-3.33-0.07-6.17-2.08-7.47-4.94l-16.24,0c-0.71,0.01-1.43,0.01-2.16,0c-9.24-0.19-17.45-2.74-24.39-6.14l-0.17,27.54
		C218.88,76.73,219.65,85.79,227.21,92.78z"/>
	<path class="st2" d="M329.24,129.52c-0.49,4.67-4.45,8.32-9.25,8.32c-5.14,0-9.3-4.17-9.3-9.3c0-2.53,1.01-4.81,2.64-6.49
		l-14.46-19.77c-0.98,0.41-2.05,0.63-3.18,0.63c-4.57,0-8.27-3.7-8.27-8.27c0-1.39,0.35-2.7,0.95-3.85l-10.45-7.77
		c-1.34,0.93-2.96,1.48-4.71,1.48c-2.5,0-4.74-1.11-6.25-2.87l-14.88,8.59c0.54,1.15,0.86,2.43,0.86,3.79
		c0,2.11-0.74,4.05-1.97,5.57h27.68c1.07,0.12,5.41,0.71,8.79,4.48c3.84,4.27,3.55,9.38,3.48,10.29l-0.33,35.5
		c-0.22,1.31-1.14,5.75-5.14,9.29c-4.44,3.93-9.57,4-10.78,3.98l-22.73,0.17l-0.17-44.79c-8.49,6.91-14.29,7.84-18.08,7.3
		c-1.37-0.2-3.24-0.69-5.64,0c-4.07,1.17-6.35,4.81-7.96,7.38c-2.43,3.88-3.42,7.75-3.82,10.7v75.31c3.15-1.96,7.43-4.21,12.77-5.97
		c5.47-1.8,10.35-2.53,14.1-2.82h46.78c3.12-0.46,19.83-3.23,30.86-18.58c8.78-12.22,8.66-25.03,8.46-29.03V129.52z"/>
</g>
<text transform="matrix(1 0 0 1 331.6418 222.8705)" class="st3 st4 st5">EXIDI</text>
<text transform="matrix(1 0 0 1 329.2896 221.8809)" class="st6 st4 st5">EXIDI</text>
<polyline class="st7" points="92.06,249.67 68.06,249.67 56.06,266.67 -4.94,266.67 "/>
<circle class="st7" cx="104.56" cy="250.17" r="12.5"/>
<polyline class="st7" points="53.14,352.58 38.87,352.34 31.06,333.44 -5.21,332.82 "/>
<circle class="st7" cx="65.56" cy="354.17" r="12.5"/>
<polyline class="st7" points="121.06,308.67 105.06,308.67 95.06,324.67 61.06,324.67 53.06,311.67 -2.94,311.67 "/>
<circle class="st7" cx="133.56" cy="308.17" r="13.5"/>
<line class="st7" x1="-4.94" y1="286.67" x2="61.06" y2="286.67"/>
<circle class="st7" cx="74.56" cy="287.17" r="13.5"/>
<circle class="st8" cx="603.84" cy="1.42" r="3.5"/>
<circle class="st8" cx="649.34" cy="77.92" r="4"/>
<circle class="st8" cx="688.34" cy="49.92" r="4"/>
<circle class="st8" cx="702.34" cy="93.92" r="5"/>
<circle class="st8" cx="672.34" cy="2.92" r="5"/>
<circle class="st8" cx="766.84" cy="75.42" r="5.5"/>
<circle class="st8" cx="909.34" cy="60.92" r="5"/>
<circle class="st8" cx="938.84" cy="30.42" r="5.5"/>
<circle class="st8" cx="940.34" cy="72.92" r="5"/>
<circle class="st8" cx="982.84" cy="88.42" r="5.5"/>
<circle class="st8" cx="1052.84" cy="68.42" r="5.5"/>
<circle class="st8" cx="1043.84" cy="27.42" r="5.5"/>
<circle class="st8" cx="1110.84" cy="22.42" r="5.5"/>
<circle class="st8" cx="940.84" cy="99.42" r="5.5"/>
<circle class="st8" cx="1073.34" cy="-0.08" r="5"/>
<circle class="st8" cx="908.84" cy="1.42" r="4.5"/>
<circle class="st8" cx="942.84" cy="170.42" r="5.5"/>
<circle class="st8" cx="1050.34" cy="176.92" r="6"/>
<circle class="st8" cx="1028.84" cy="223.42" r="5.5"/>
<circle class="st8" cx="935.84" cy="248.42" r="5.5"/>
<circle class="st8" cx="1043.84" cy="291.42" r="5.5"/>
<circle class="st8" cx="1088.34" cy="294.92" r="5"/>
<circle class="st8" cx="1001.84" cy="329.42" r="5.5"/>
<circle class="st8" cx="1082.84" cy="369.42" r="5.5"/>
<circle class="st8" cx="1149.84" cy="339.42" r="4.5"/>
<circle class="st8" cx="1158.84" cy="297.42" r="5.5"/>
<circle class="st8" cx="1122.84" cy="241.42" r="5.5"/>
<circle class="st8" cx="1136.84" cy="263.42" r="5.5"/>
<circle class="st8" cx="1181.84" cy="231.42" r="5.5"/>
<circle class="st8" cx="1147.84" cy="171.42" r="5.5"/>
<circle class="st8" cx="1136.34" cy="139.92" r="6"/>
<circle class="st8" cx="1172.84" cy="72.42" r="5.5"/>
<circle class="st8" cx="865.84" cy="210.42" r="5.5"/>
<circle class="st8" cx="771.34" cy="133.92" r="5"/>
<circle class="st8" cx="843.34" cy="126.92" r="7"/>
<circle class="st8" cx="867.34" cy="44.92" r="5"/>
<circle class="st8" cx="838.34" cy="1.92" r="5"/>
<circle class="st8" cx="802.34" cy="64.92" r="5"/>
<circle class="st9" cx="758.84" cy="0.42" r="5.5"/>
<line class="st10" x1="603.84" y1="1.42" x2="648.84" y2="76.42"/>
<line class="st10" x1="671.34" y1="4.92" x2="649.34" y2="76.92"/>
<line class="st10" x1="688.34" y1="49.92" x2="673.34" y2="4.92"/>
<line class="st10" x1="688.34" y1="49.92" x2="755.34" y2="1.92"/>
<line class="st10" x1="702.34" y1="92.92" x2="757.34" y2="0.92"/>
<line class="st10" x1="688.34" y1="49.92" x2="701.34" y2="92.92"/>
<line class="st10" x1="649.34" y1="77.92" x2="688.34" y2="49.92"/>
<line class="st10" x1="699.34" y1="93.92" x2="650.34" y2="77.92"/>
<line class="st10" x1="764.34" y1="76.92" x2="702.34" y2="93.92"/>
<line class="st10" x1="760.34" y1="0.92" x2="767.34" y2="75.92"/>
<line class="st10" x1="802.34" y1="64.92" x2="761.34" y2="2.92"/>
<line class="st10" x1="766.34" y1="75.92" x2="801.34" y2="64.92"/>
<line class="st10" x1="772.34" y1="136.92" x2="767.34" y2="75.92"/>
<line class="st10" x1="704.34" y1="93.92" x2="767.34" y2="130.92"/>
<line class="st10" x1="839.34" y1="128.92" x2="772.34" y2="133.92"/>
<line class="st10" x1="869.34" y1="44.92" x2="909.34" y2="60.92"/>
<line class="st10" x1="845.34" y1="126.92" x2="909.34" y2="60.92"/>
<line class="st10" x1="939.34" y1="72.92" x2="911.34" y2="61.92"/>
<line class="st10" x1="935.34" y1="33.92" x2="913.34" y2="56.92"/>
<line class="st10" x1="939.34" y1="31.92" x2="939.34" y2="72.92"/>
<line class="st10" x1="983.34" y1="86.92" x2="937.34" y2="30.92"/>
<line class="st10" x1="867.34" y1="44.92" x2="937.34" y2="30.92"/>
<line class="st10" x1="802.34" y1="62.92" x2="867.34" y2="45.92"/>
<line class="st10" x1="845.34" y1="126.92" x2="869.34" y2="44.92"/>
<line class="st10" x1="801.34" y1="64.92" x2="841.34" y2="123.92"/>
<line class="st10" x1="941.34" y1="99.92" x2="941.34" y2="73.92"/>
<line class="st10" x1="985.34" y1="88.92" x2="940.34" y2="72.92"/>
<line class="st10" x1="941.34" y1="170.92" x2="983.34" y2="86.92"/>
<line class="st10" x1="941.34" y1="99.92" x2="982.34" y2="88.92"/>
<line class="st10" x1="941.34" y1="167.92" x2="941.34" y2="99.92"/>
<line class="st10" x1="843.34" y1="126.92" x2="941.34" y2="99.92"/>
<line class="st10" x1="944.34" y1="168.92" x2="845.34" y2="128.92"/>
<line class="st10" x1="867.34" y1="211.92" x2="843.34" y2="128.92"/>
<line class="st10" x1="944.34" y1="170.92" x2="869.34" y2="205.92"/>
<line class="st10" x1="936.34" y1="248.92" x2="941.34" y2="170.92"/>
<line class="st10" x1="867.34" y1="211.92" x2="935.34" y2="248.92"/>
<line class="st10" x1="943.34" y1="171.92" x2="1049.34" y2="175.92"/>
<line class="st10" x1="1138.34" y1="141.92" x2="1053.34" y2="176.92"/>
<line class="st10" x1="1146.34" y1="173.92" x2="1136.34" y2="140.92"/>
<line class="st10" x1="1053.34" y1="70.92" x2="1051.34" y2="175.92"/>
<line class="st10" x1="983.34" y1="89.92" x2="1047.34" y2="175.92"/>
<line class="st10" x1="1055.34" y1="67.92" x2="1111.34" y2="22.92"/>
<line class="st10" x1="1044.34" y1="27.92" x2="1108.34" y2="22.92"/>
<line class="st10" x1="1073.34" y1="-0.08" x2="1108.34" y2="20.92"/>
<line class="st10" x1="1044.34" y1="27.92" x2="1069.34" y2="2.92"/>
<line class="st10" x1="1053.34" y1="68.92" x2="1044.34" y2="27.92"/>
<line class="st10" x1="983.34" y1="86.92" x2="1051.34" y2="69.92"/>
<line class="st10" x1="1044.34" y1="27.92" x2="985.34" y2="85.92"/>
<line class="st10" x1="907.34" y1="1.92" x2="870.34" y2="42.92"/>
<line class="st10" x1="840.34" y1="1.92" x2="867.34" y2="44.92"/>
<line class="st10" x1="803.34" y1="64.92" x2="836.34" y2="2.92"/>
<line class="st10" x1="908.34" y1="0.92" x2="938.34" y2="28.92"/>
<line class="st10" x1="1044.34" y1="26.92" x2="906.34" y2="0.92"/>
<line class="st10" x1="1110.34" y1="21.92" x2="1172.34" y2="71.92"/>
<line class="st10" x1="1136.34" y1="140.92" x2="1111.34" y2="20.92"/>
<line class="st10" x1="1053.34" y1="69.92" x2="1136.34" y2="139.92"/>
<line class="st10" x1="1214.34" y1="141.92" x2="1172.34" y2="71.92"/>
<line class="st10" x1="1147.34" y1="170.92" x2="1214.34" y2="141.92"/>
<line class="st10" x1="1136.34" y1="139.92" x2="1174.34" y2="71.92"/>
<line class="st10" x1="1220.34" y1="109.92" x2="1174.34" y2="71.92"/>
<line class="st10" x1="1113.34" y1="21.92" x2="1213.34" y2="-1.08"/>
<line class="st10" x1="1174.34" y1="71.92" x2="1213.34" y2="-1.08"/>
<line class="st10" x1="1052.34" y1="176.92" x2="1183.34" y2="231.92"/>
<line class="st10" x1="1146.34" y1="173.92" x2="1183.34" y2="231.92"/>
<line class="st10" x1="1051.34" y1="175.92" x2="1144.34" y2="172.92"/>
<line class="st10" x1="1183.34" y1="231.92" x2="1214.34" y2="141.92"/>
<line class="st10" x1="1160.34" y1="296.92" x2="1212.34" y2="276.92"/>
<line class="st10" x1="1183.34" y1="231.92" x2="1212.34" y2="275.92"/>
<line class="st10" x1="1137.34" y1="263.92" x2="1182.34" y2="231.92"/>
<line class="st10" x1="1123.34" y1="241.92" x2="1178.34" y2="231.92"/>
<line class="st10" x1="1136.34" y1="261.92" x2="1122.34" y2="243.92"/>
<line class="st10" x1="1090.34" y1="296.92" x2="1137.34" y2="263.92"/>
<line class="st10" x1="1123.34" y1="241.92" x2="1088.34" y2="294.92"/>
<line class="st10" x1="1150.34" y1="337.92" x2="1159.34" y2="294.92"/>
<line class="st10" x1="1139.34" y1="265.92" x2="1156.34" y2="294.92"/>
<line class="st10" x1="1026.34" y1="223.92" x2="1088.34" y2="249.92"/>
<line class="st10" x1="1123.34" y1="241.92" x2="1088.34" y2="249.92"/>
<line class="st10" x1="1043.34" y1="290.92" x2="1088.34" y2="249.92"/>
<line class="st10" x1="1049.34" y1="175.92" x2="1122.34" y2="240.92"/>
<line class="st10" x1="1028.34" y1="222.92" x2="1049.34" y2="177.92"/>
<line class="st10" x1="942.34" y1="167.92" x2="1025.34" y2="220.92"/>
<line class="st10" x1="936.34" y1="249.92" x2="1026.34" y2="223.92"/>
<line class="st10" x1="1043.34" y1="292.92" x2="1028.34" y2="223.92"/>
<line class="st10" x1="1001.34" y1="328.92" x2="1028.34" y2="224.92"/>
<line class="st10" x1="934.34" y1="249.92" x2="999.34" y2="327.92"/>
<line class="st10" x1="1045.34" y1="290.92" x2="1001.34" y2="328.92"/>
<line class="st10" x1="1090.34" y1="294.92" x2="1046.34" y2="292.92"/>
<line class="st10" x1="1002.34" y1="328.92" x2="1083.34" y2="369.92"/>
<line class="st10" x1="1043.34" y1="291.92" x2="1083.34" y2="369.92"/>
<line class="st10" x1="1090.34" y1="294.92" x2="1150.34" y2="337.92"/>
<line class="st10" x1="1083.34" y1="369.92" x2="1150.34" y2="338.92"/>
<line class="st10" x1="1158.34" y1="298.92" x2="1216.34" y2="372.92"/>
<line class="st10" x1="1148.34" y1="339.92" x2="1216.34" y2="372.92"/>
<text transform="matrix(1 0 0 1 216.4219 292.0605)" class="st11 st4 st12">APRENDER NUNCA FUE TAN FACIL</text>
</svg>
